<?xml version="1.0" encoding="UTF-8"?>
<svg version="1.1" xmlns="http://www.w3.org/2000/svg" width="199" height="198">
<path d="M0 0 C0.99801636 -0.00511093 1.99603271 -0.01022186 3.02429199 -0.01548767 C6.29897178 -0.02930276 9.57343919 -0.02843297 12.84814453 -0.02612305 C15.14063596 -0.03001441 17.43312667 -0.03434999 19.72561646 -0.03910828 C24.52185406 -0.04655313 29.31801802 -0.04629178 34.11425781 -0.04101562 C40.23931369 -0.03522347 46.36406693 -0.05215461 52.4890728 -0.0753603 C57.22134137 -0.09014165 61.95353778 -0.09096334 66.68582535 -0.08785057 C68.94310226 -0.08836157 71.20038344 -0.09355744 73.45763779 -0.10366249 C76.62299632 -0.11609499 79.78777471 -0.10919434 82.953125 -0.09765625 C83.87191437 -0.10529999 84.79070374 -0.11294373 85.73733521 -0.12081909 C96.59177762 -0.03402293 105.85310189 2.44380653 113.60595703 10.2746582 C119.92580882 18.27877368 120.90474163 25.93496098 120.89648438 35.88867188 C120.9032016 37.05206085 120.90991882 38.21544983 120.9168396 39.41409302 C120.93582362 43.25698123 120.93974431 47.09969477 120.94189453 50.94262695 C120.94669742 52.94335274 120.95150399 54.94407856 120.95681536 56.94480306 C120.97307821 63.23648964 120.97798643 69.52811903 120.9765625 75.81982422 C120.97536308 82.28640621 120.99642957 88.75265337 121.02804983 95.21915072 C121.05430737 100.78968933 121.06492578 106.36011927 121.06365168 111.9307192 C121.0631446 115.24938699 121.07055793 118.5676926 121.09000778 121.88631248 C121.109709 125.59571061 121.10381197 129.30425865 121.09179688 133.01367188 C121.10303589 134.09613693 121.1142749 135.17860199 121.12585449 136.29386902 C121.05511875 144.93297052 119.17190466 152.27479867 114.48095703 159.5871582 C104.94953166 168.49696888 95.04495189 170.59003329 82.36376953 170.53344727 C81.38204773 170.5369519 80.40032593 170.54045654 79.38885498 170.54406738 C76.16948203 170.55281243 72.95033191 170.54706113 69.73095703 170.5402832 C67.4785152 170.54163193 65.22607365 170.54357419 62.97363281 170.54608154 C58.26315528 170.54902302 53.55275382 170.54476656 48.84228516 170.53540039 C42.82022037 170.52400653 36.79833389 170.53057122 30.77627563 170.54254532 C26.12816029 170.54979026 21.48008686 170.54746389 16.83197021 170.54228973 C14.61212136 170.54096053 12.39226864 170.54257528 10.17242432 170.54724884 C7.06422927 170.55235742 3.95631854 170.5445431 0.84814453 170.53344727 C-0.05913391 170.53749573 -0.96641235 170.54154419 -1.90118408 170.54571533 C-12.01671449 170.47919549 -20.26467891 168.52376119 -28.39404297 162.2746582 C-35.75095288 154.79410275 -37.71237322 146.85880116 -37.68058777 136.64865112 C-37.65740639 134.52372794 -37.61987143 132.39935686 -37.58154297 130.2746582 C-37.56647037 128.81764077 -37.55278652 127.36060827 -37.54052734 125.90356445 C-37.507722 122.36027896 -37.45608204 118.81756649 -37.39404297 115.2746582 C-38.79009766 115.3384668 -38.79009766 115.3384668 -40.21435547 115.40356445 C-43.39404297 115.2746582 -43.39404297 115.2746582 -46.26904297 113.2121582 C-48.39404297 110.2746582 -48.39404297 110.2746582 -48.95654297 106.7121582 C-48.39404297 103.2746582 -48.39404297 103.2746582 -46.83154297 100.8996582 C-44.39404297 99.2746582 -44.39404297 99.2746582 -37.39404297 98.2746582 C-37.39404297 92.9946582 -37.39404297 87.7146582 -37.39404297 82.2746582 C-39.70404297 82.2746582 -42.01404297 82.2746582 -44.39404297 82.2746582 C-47.31768887 79.7258387 -48.24313473 78.07950215 -48.95654297 74.2746582 C-48.18706245 70.17076208 -46.72282929 68.73506548 -43.39404297 66.2746582 C-41.41404297 66.2746582 -39.43404297 66.2746582 -37.39404297 66.2746582 C-37.39404297 60.9946582 -37.39404297 55.7146582 -37.39404297 50.2746582 C-39.70404297 49.9446582 -42.01404297 49.6146582 -44.39404297 49.2746582 C-46.83154297 47.6496582 -46.83154297 47.6496582 -48.39404297 45.2746582 C-48.95325933 41.36014365 -49.02679106 39.2364353 -46.83154297 35.8996582 C-43.71552007 33.8223096 -41.08940883 33.55891712 -37.39404297 33.2746582 C-37.47654297 31.9959082 -37.55904297 30.7171582 -37.64404297 29.3996582 C-37.6191852 21.49488647 -34.4777553 14.53607807 -29.08544922 8.8059082 C-20.53683577 1.06674776 -11.18402608 -0.03002423 0 0 Z M-16.39404297 20.2746582 C-19.38527956 23.73819531 -20.34739855 25.55166969 -20.64404297 30.1496582 C-20.56154297 31.1809082 -20.47904297 32.2121582 -20.39404297 33.2746582 C-18.72341797 33.7077832 -18.72341797 33.7077832 -17.01904297 34.1496582 C-13.39404297 35.2746582 -13.39404297 35.2746582 -11.39404297 37.2746582 C-10.83329531 44.34007876 -10.83329531 44.34007876 -12.51904297 47.1496582 C-14.39404297 48.2746582 -14.39404297 48.2746582 -20.39404297 50.2746582 C-20.39404297 55.5546582 -20.39404297 60.8346582 -20.39404297 66.2746582 C-18.08404297 66.9346582 -15.77404297 67.5946582 -13.39404297 68.2746582 C-11.39404297 70.2746582 -11.39404297 70.2746582 -11.08154297 74.2121582 C-11.15949165 76.74319767 -11.2358114 78.00214828 -12.51904297 80.2121582 C-14.39404297 81.2746582 -14.39404297 81.2746582 -20.39404297 82.2746582 C-20.39404297 87.5546582 -20.39404297 92.8346582 -20.39404297 98.2746582 C-19.09466797 98.7284082 -17.79529297 99.1821582 -16.45654297 99.6496582 C-12.51904297 101.0246582 -12.51904297 101.0246582 -11.39404297 103.2746582 C-11.16698877 106.13554107 -10.98145159 108.47820552 -11.39404297 111.2746582 C-13.991275 114.25666535 -16.62268411 114.58042797 -20.39404297 115.2746582 C-20.49345393 119.2946845 -20.56576359 123.31422783 -20.61376953 127.33520508 C-20.63379616 128.70089188 -20.66102629 130.06649389 -20.69580078 131.43188477 C-20.74470729 133.40252922 -20.76495644 135.37381803 -20.78466797 137.3449707 C-20.80561523 138.52849121 -20.8265625 139.71201172 -20.84814453 140.93139648 C-20.29780105 144.9832264 -18.92092251 147.09901649 -16.39404297 150.2746582 C-10.60146193 154.51313214 -7.43180393 153.2746582 0.60595703 153.2746582 C0.60595703 108.3946582 0.60595703 63.5146582 0.60595703 17.2746582 C-9.01663293 16.65542124 -9.01663293 16.65542124 -16.39404297 20.2746582 Z M17.60595703 17.2746582 C17.60595703 62.1546582 17.60595703 107.0346582 17.60595703 153.2746582 C30.02220703 153.3365332 42.43845703 153.3984082 55.23095703 153.4621582 C61.10062256 153.50312622 61.10062256 153.50312622 67.08886719 153.54492188 C70.61210237 153.55495832 70.61210237 153.55495832 74.13534546 153.56098938 C75.69844121 153.56558082 77.26152668 153.57610035 78.82455444 153.59138489 C81.19930334 153.61343602 83.57340582 153.61637323 85.94824219 153.61523438 C86.63864908 153.6260287 87.32905598 153.63682302 88.04038429 153.64794445 C92.64203733 153.61852575 95.77517921 152.8369678 99.60595703 150.2746582 C104.57369354 145.02864975 104.17506779 139.68187851 104.12353516 132.85668945 C104.13054443 131.71452972 104.13755371 130.57237 104.14477539 129.39559937 C104.16235858 125.62587056 104.15073058 121.85689444 104.13720703 118.0871582 C104.13990183 115.46451676 104.14378414 112.8418763 104.14880371 110.21923828 C104.15607123 104.72493356 104.14651619 99.23084425 104.12744141 93.73657227 C104.10567408 87.39368711 104.11272611 81.05131634 104.13474703 74.70844364 C104.15511868 68.59481576 104.15292124 62.48141507 104.14122009 56.36776733 C104.13855233 53.77143278 104.14182427 51.17508509 104.15113831 48.57876587 C104.16130019 44.9496995 104.14580579 41.32161986 104.12353516 37.69262695 C104.13163208 36.62023773 104.139729 35.54784851 104.14807129 34.44296265 C104.08175459 28.60786286 103.80832225 24.71242244 99.60595703 20.2746582 C95.13987458 17.28740953 91.18928489 16.85213975 85.94824219 16.93408203 C84.81716821 16.93353962 84.81716821 16.93353962 83.66324425 16.93298626 C81.2402256 16.9352123 78.81791312 16.95799646 76.39501953 16.98168945 C74.89201185 16.98610439 73.38899955 16.98916241 71.88598633 16.99084473 C66.33423922 17.00652603 60.78259107 17.04840992 55.23095703 17.0871582 C42.81470703 17.1490332 30.39845703 17.2109082 17.60595703 17.2746582 Z " fill="#FDFDFE" transform="translate(63.39404296875,14.725341796875)"/>
<path d="M0 0 C0.95769287 -0.00619858 1.91538574 -0.01239716 2.90209961 -0.01878357 C4.92267848 -0.02587321 6.94331587 -0.0227227 8.96386719 -0.01000977 C12.05252653 0.00386146 15.13815863 -0.03023397 18.2265625 -0.06835938 C20.19270907 -0.06931057 22.15885943 -0.06745174 24.125 -0.0625 C25.50643188 -0.08238731 25.50643188 -0.08238731 26.91577148 -0.10267639 C31.42335483 -0.03731979 33.44757628 0.10477562 37.1484375 2.88305664 C39.65689376 6.39969475 39.75490851 8.3350209 39.0625 12.56640625 C37.19541495 14.93138064 35.74188569 16.2267134 33.0625 17.56640625 C31.73106864 17.67021127 30.39473902 17.71498998 29.05932617 17.72753906 C28.23474411 17.73714661 27.41016205 17.74675415 26.56059265 17.75665283 C25.66790176 17.76090271 24.77521088 17.76515259 23.85546875 17.76953125 C22.47915031 17.77808136 22.47915031 17.77808136 21.07502747 17.7868042 C19.13067785 17.79626058 17.18631216 17.80279071 15.24194336 17.80664062 C12.27233746 17.81633334 9.30342737 17.84734528 6.33398438 17.87890625 C4.44531661 17.88543759 2.5566439 17.89068754 0.66796875 17.89453125 C-0.21864944 17.90687805 -1.10526764 17.91922485 -2.01875305 17.9319458 C-6.80341928 17.91472926 -10.07387909 17.72575882 -13.9375 14.56640625 C-15.50450442 11.4323974 -15.78914561 7.9348553 -14.9375 4.56640625 C-10.49964752 -0.29482756 -6.16282363 -0.03319034 0 0 Z " fill="#FCFCFD" transform="translate(111.9375,47.43359375)"/>
<path d="M0 0 C0.98226059 -0.0038269 1.96452118 -0.00765381 2.97654724 -0.01159668 C5.04842151 -0.01431328 7.12033022 -0.00696976 9.19213867 0.00976562 C12.36389482 0.03120135 15.53339172 0.0099432 18.70507812 -0.015625 C20.72005708 -0.01298213 22.73503463 -0.00785799 24.75 0 C26.17198448 -0.01214539 26.17198448 -0.01214539 27.62269592 -0.02453613 C34.17977395 0.06893643 34.17977395 0.06893643 37.40405273 2.43945312 C38.9209909 4.6986442 39.35073372 5.8342922 39.30859375 8.53125 C39.31890625 9.19125 39.32921875 9.85125 39.33984375 10.53125 C38.51300014 13.64407299 37.43271716 14.61369684 34.80859375 16.53125 C31.37614553 17.14379779 27.97510604 17.09145096 24.49609375 17.0625 C23.49022217 17.0663269 22.48435059 17.07015381 21.44799805 17.07409668 C19.32306924 17.07681651 17.19810699 17.06945041 15.07324219 17.05273438 C11.82020443 17.03132641 8.5693753 17.05253432 5.31640625 17.078125 C3.25129721 17.07548174 1.18618954 17.07035679 -0.87890625 17.0625 C-1.85190674 17.07059692 -2.82490723 17.07869385 -3.82739258 17.08703613 C-10.55932158 16.99352882 -10.55932158 16.99352882 -13.80053711 14.62304688 C-15.2927295 12.37886495 -15.75912999 11.20580241 -15.75390625 8.53125 C-15.77582031 7.87125 -15.79773438 7.21125 -15.8203125 6.53125 C-13.55387843 -0.6762919 -6.16756869 -0.05279087 0 0 Z " fill="#FDFDFE" transform="translate(112.19140625,80.46875)"/>
</svg>
