<?xml version="1.0" encoding="UTF-8"?>
<svg version="1.1" xmlns="http://www.w3.org/2000/svg" width="161" height="159">
<path d="M0 0 C1.01244278 -0.00700928 2.02488556 -0.01401855 3.06800842 -0.02124023 C6.39523216 -0.03876131 9.72159662 -0.02721789 13.04882812 -0.01367188 C15.37235679 -0.01636847 17.69588436 -0.02025228 20.01940918 -0.02526855 C24.88137592 -0.03115566 29.74304806 -0.02262571 34.60498047 -0.00390625 C40.82576703 0.01888238 47.0458632 0.00575513 53.26662445 -0.01819611 C58.06228808 -0.03267514 62.85778901 -0.02803834 67.65345764 -0.01768494 C69.94670189 -0.01502349 72.23996108 -0.01826683 74.53318787 -0.02760315 C77.74257332 -0.03780304 80.95085281 -0.02221844 84.16015625 0 C85.10065323 -0.00809692 86.04115021 -0.01619385 87.01014709 -0.02453613 C93.97121796 0.06439128 99.241204 1.69436023 104.60351562 6.22851562 C105.04953125 6.77765625 105.49554688 7.32679687 105.95507812 7.89257812 C106.64730469 8.70855469 106.64730469 8.70855469 107.35351562 9.54101562 C110.88409681 15.23042353 110.88178118 20.93172072 110.88647461 27.40332031 C110.89479813 28.38299774 110.90312164 29.36267517 110.91169739 30.37203979 C110.9357438 33.60288498 110.94456344 36.833528 110.95117188 40.06445312 C110.96014291 42.31878722 110.96926484 44.57312071 110.97853088 46.82745361 C110.99500933 51.55165044 111.00271882 56.27577649 111.00561523 61 C111.01099495 67.03685037 111.04866379 73.07303034 111.0943594 79.10969162 C111.12418564 83.76644282 111.13134003 88.42303374 111.13234138 93.07987213 C111.13653329 95.30450762 111.14892591 97.52914405 111.16985893 99.753685 C111.19688529 102.87436911 111.19191359 105.99351424 111.17944336 109.11425781 C111.20169479 110.47685226 111.20169479 110.47685226 111.22439575 111.86697388 C111.14753531 118.6631173 109.23409406 123.78857692 105.58007812 129.51757812 C103.22851562 131.77148438 103.22851562 131.77148438 100.95507812 133.08007812 C100.1996875 133.53511719 99.44429688 133.99015625 98.66601562 134.45898438 C95.46651333 136.08270183 92.90016592 136.64449654 89.36286926 136.66474915 C88.07403839 136.6754821 88.07403839 136.6754821 86.75917053 136.68643188 C85.81939865 136.68912079 84.87962677 136.69180969 83.91137695 136.69458008 C82.4230687 136.70443687 82.4230687 136.70443687 80.9046936 136.7144928 C77.61549811 136.73423029 74.3263483 136.74589014 71.03710938 136.75585938 C69.91349188 136.7599349 68.78987438 136.76401043 67.63220787 136.76820946 C61.68376219 136.78907324 55.7353396 136.80337301 49.78686523 136.81274414 C43.64784298 136.82380233 37.50918381 136.85819495 31.3702898 136.89791584 C26.64586216 136.92408461 21.92152095 136.93243629 17.19702721 136.93602562 C14.93446084 136.94089175 12.67189834 136.95250643 10.40940285 136.97106361 C7.23789499 136.99545724 4.06732526 136.99448913 0.89575195 136.98754883 C-0.49872414 137.00676392 -0.49872414 137.00676392 -1.92137146 137.02636719 C-9.0148346 136.96996664 -14.1805434 135.20389199 -19.66210938 130.65820312 C-20.47035156 129.72234375 -20.47035156 129.72234375 -21.29492188 128.76757812 C-21.84921875 128.15398437 -22.40351563 127.54039062 -22.97460938 126.90820312 C-26.66772801 120.79958528 -26.71473422 113.8995452 -26.69458008 106.97143555 C-26.69969101 106.05159378 -26.70480194 105.13175201 -26.71006775 104.18403625 C-26.72389057 101.16363901 -26.72301227 98.14347187 -26.72070312 95.12304688 C-26.72459447 93.00848812 -26.72893005 90.89393015 -26.73368835 88.77937317 C-26.74113518 84.35378482 -26.74087073 79.92827627 -26.7355957 75.50268555 C-26.72980761 69.85401711 -26.7467238 64.20567727 -26.76994038 58.5570631 C-26.78473154 54.19108699 -26.78554202 49.825189 -26.78243065 45.45919228 C-26.7829413 43.37775332 -26.78813054 41.2963097 -26.79824257 39.21489525 C-26.90486412 14.19735771 -26.90486412 14.19735771 -21.23242188 6.58007812 C-14.22887553 1.44414414 -8.65797357 -0.0745382 0 0 Z M-11.41992188 17.51757812 C-13.95851291 22.5947602 -12.41992188 28.841116 -12.41992188 34.51757812 C23.55007812 34.51757812 59.52007812 34.51757812 96.58007812 34.51757812 C96.58007812 29.23757812 96.58007812 23.95757812 96.58007812 18.51757812 C91.63073602 13.74006096 91.63073602 13.74006096 86.20970154 12.88938904 C84.98390884 12.8704081 84.98390884 12.8704081 83.73335266 12.8510437 C82.8557579 12.8627359 81.97816315 12.8744281 81.07397461 12.88647461 C80.13503357 12.87931931 79.19609253 12.872164 78.22869873 12.86479187 C75.13568971 12.8479303 72.04413514 12.86729158 68.95117188 12.88867188 C66.79696025 12.88784302 64.64274868 12.88538299 62.48854065 12.88136292 C57.97857579 12.87850673 53.46910807 12.89319031 48.95922852 12.9206543 C43.17972086 12.95475679 37.40110086 12.9487101 31.62155056 12.92999172 C27.17512112 12.91942203 22.72889812 12.92835903 18.28248787 12.94337654 C16.15144527 12.94855762 14.0203811 12.94807746 11.88934135 12.94183159 C8.9113517 12.93637909 5.93463204 12.95675555 2.95678711 12.98413086 C2.07716812 12.97760498 1.19754913 12.9710791 0.29127502 12.96435547 C-4.86782042 13.04496534 -7.70261792 13.58359957 -11.41992188 17.51757812 Z M-12.41992188 48.51757812 C-12.48179688 59.63445312 -12.54367188 70.75132813 -12.60742188 82.20507812 C-12.63473389 85.70963623 -12.6620459 89.21419434 -12.69018555 92.82495117 C-12.70022153 95.97830522 -12.70022153 95.97830522 -12.70625305 99.13166809 C-12.71084675 100.53147749 -12.72137103 101.93127534 -12.73664856 103.33100891 C-12.75868218 105.45680221 -12.76163753 107.5818729 -12.76049805 109.70776367 C-12.76715988 110.90467331 -12.77382172 112.10158295 -12.78068542 113.33476257 C-12.38337724 116.83999101 -11.52390921 118.71409673 -9.41992188 121.51757812 C-7.15834936 122.64836438 -5.92019969 122.65006185 -3.40994263 122.66474915 C-2.57155853 122.67190445 -1.73317444 122.67905975 -0.86938477 122.68643188 C0.05221436 122.68912079 0.97381348 122.69180969 1.92333984 122.69458008 C2.89256378 122.70115128 3.86178772 122.70772247 4.86038208 122.7144928 C8.07684398 122.73424986 11.29325919 122.74589269 14.50976562 122.75585938 C16.15440985 122.76197267 16.15440985 122.76197267 17.83227921 122.76820946 C23.63346418 122.78907873 29.43462543 122.80337774 35.23583984 122.81274414 C41.23740472 122.82382089 47.23860007 122.85823317 53.2400341 122.89791584 C57.84677842 122.92401693 62.45343375 122.9324301 67.06024551 122.93602562 C69.27308783 122.94090706 71.48592576 122.952565 73.69869614 122.97106361 C76.79210767 122.99532029 79.88455053 122.99451475 82.97802734 122.98754883 C83.895578 123.00035889 84.81312866 123.01316895 85.75848389 123.02636719 C89.55781681 122.99510992 91.88163523 122.95194279 95.15182495 120.91819763 C97.08188837 117.67413141 97.06129888 115.40726308 97.03417969 111.63769531 C97.0349029 110.59619261 97.0349029 110.59619261 97.03564072 109.53364944 C97.03266283 107.29338985 97.00224244 105.05447348 96.97070312 102.81445312 C96.9648195 101.42855469 96.96074032 100.04264739 96.95849609 98.65673828 C96.93755329 93.52688238 96.88170805 88.39721695 96.83007812 83.26757812 C96.74757813 71.80007812 96.66507812 60.33257812 96.58007812 48.51757812 C60.61007813 48.51757812 24.64007813 48.51757812 -12.41992188 48.51757812 Z " fill="#EDEDEF" transform="translate(38.419921875,11.482421875)"/>
<path d="M0 0 C2.70068359 2.0378418 2.70068359 2.0378418 5.3984375 4.69921875 C5.8782608 5.17188675 6.35808411 5.64455475 6.85244751 6.13154602 C7.85853883 7.12988554 8.85833009 8.13461006 9.85205078 9.14526367 C11.37265166 10.68512192 12.9203608 12.19334707 14.47265625 13.70117188 C15.44969078 14.67791608 16.42501267 15.65637707 17.3984375 16.63671875 C18.28192871 17.52061279 19.16541992 18.40450684 20.07568359 19.31518555 C22.3692249 22.51514415 22.48878248 24.14559132 22 28 C20.9609375 29.84375 20.9609375 29.84375 19.375 31.5 C18.74980469 32.16128906 18.12460938 32.82257813 17.48046875 33.50390625 C16.66191406 34.32761719 15.84335938 35.15132812 15 36 C13.82938606 37.19657445 12.65881683 38.39319264 11.48828125 39.58984375 C9.00523707 42.10945045 6.51824528 44.62483146 4.01171875 47.12109375 C3.48022217 47.6514624 2.94872559 48.18183105 2.40112305 48.72827148 C0.27122119 50.66147566 -0.97604721 50.99739644 -3.875 51.3125 C-7 51 -7 51 -9.4375 49.4375 C-11 47 -11 47 -11.0390625 43.8125 C-9.62140104 38.61085494 -6.82076215 36.14967764 -2.9375 32.5625 C-1.94266602 31.60827148 -1.94266602 31.60827148 -0.92773438 30.63476562 C0.70205813 29.07532388 2.34413568 27.53165061 4 26 C2.68742945 23.05395544 1.33377957 21.14621957 -1.07421875 19.01171875 C-1.65880859 18.46966797 -2.24339844 17.92761719 -2.84570312 17.36914062 C-4.07418428 16.24748392 -5.31390243 15.13801275 -6.56445312 14.04101562 C-8.28046497 12.42785021 -9.72377989 10.98124125 -11 9 C-11 5.08484312 -10.85140247 3.0090696 -8.3125 0 C-5.09493292 -1.39138036 -3.37052981 -0.90384218 0 0 Z " fill="#EAEAEC" transform="translate(54,70)"/>
<path d="M0 0 C0.33 0.99 0.66 1.98 1 3 C0.05125 3.9075 -0.8975 4.815 -1.875 5.75 C-4.14549867 8.00978877 -5.83296506 9.96570916 -7 13 C-6.81523971 8.38099287 -6.20125576 5.78017921 -2.9375 2.5625 C-1.968125 1.716875 -0.99875 0.87125 0 0 Z " fill="#9B9FA8" transform="translate(50,104)"/>
</svg>
