<?xml version="1.0" encoding="UTF-8"?>
<svg version="1.1" xmlns="http://www.w3.org/2000/svg" width="199" height="198">
<path d="M0 0 C1.8125 1.0625 1.8125 1.0625 3 3 C3.226875 4.299375 3.45375 5.59875 3.6875 6.9375 C4.34473446 10.04480457 4.34473446 10.04480457 6.62109375 12.09375 C8.00151608 12.67498045 9.3844993 13.25015363 10.76953125 13.8203125 C17.4132061 17.33413002 21.57578182 24.113182 24 31 C25.1820561 40.66330859 24.52266396 48.78294545 19 57 C18.34 57.99 17.68 58.98 17 60 C25.45779792 76.45158641 34.05083832 92.80852675 43 109 C43.66 109 44.32 109 45 109 C45.94969876 107.5975037 46.83535521 106.15132132 47.6875 104.6875 C49.64791036 101.67551029 51.19584191 99.39273214 54.4375 97.75 C59.1894586 96.74958766 60.8508057 97.5934673 65 100 C66.6189524 103.2379048 66.54759117 106.49781473 66 110 C64.73622798 112.5793663 63.05282344 114.64104559 61.1875 116.8125 C60.50977539 117.65071289 60.50977539 117.65071289 59.81835938 118.50585938 C57.67203981 121.13470918 55.46526352 123.66578038 53 126 C54.27555755 130.17727799 55.85352596 133.77763204 58.0390625 137.5546875 C58.61914062 138.58207031 59.19921875 139.60945312 59.796875 140.66796875 C61.01419124 142.80347438 62.24075524 144.93373528 63.4765625 147.05859375 C66.80484784 152.99453122 69.01672004 157.15093242 68 164 C66.09496794 166.75171298 64.7143524 167.71801879 61.625 168.9375 C57.98086565 169.0242651 56.0975005 167.89823716 53 166 C51.03369141 163.27270508 51.03369141 163.27270508 49.3515625 160.01953125 C48.73925781 158.85615234 48.12695312 157.69277344 47.49609375 156.49414062 C46.87201797 155.26711919 46.24832476 154.03990312 45.625 152.8125 C44.97945056 151.57274059 44.33232993 150.33379797 43.68359375 149.09570312 C42.10675945 146.07147614 40.54642232 143.03985889 39 140 C34.89327663 140 32.03836669 141.9308703 28.5 143.8125 C11.16844914 152.76380989 -8.2173961 154.79548043 -27 149 C-35.41347076 146.00398358 -42.85004023 142.36246982 -50 137 C-50.6290625 138.07636719 -51.258125 139.15273437 -51.90625 140.26171875 C-54.14629303 144.08878873 -56.39917559 147.9081408 -58.65722656 151.72460938 C-59.50657576 153.16387019 -60.35270118 154.60504258 -61.19433594 156.04882812 C-62.24506295 157.85086654 -63.30821371 159.64493653 -64.375 161.4375 C-64.98085937 162.46746094 -65.58671875 163.49742187 -66.2109375 164.55859375 C-68.04327055 167.05904824 -69.08685516 168.04249224 -72 169 C-75.5012527 168.85411447 -77.47615008 168.35842363 -80.375 166.375 C-82.63860009 163.0666614 -82.31887024 160.96346946 -82 157 C-80.65478516 153.77441406 -80.65478516 153.77441406 -78.7890625 150.515625 C-78.46086517 149.93335144 -78.13266785 149.35107788 -77.79452515 148.75115967 C-76.75180238 146.9091759 -75.68883511 145.07985431 -74.625 143.25 C-73.9179264 142.0072744 -73.21218412 140.76379031 -72.5078125 139.51953125 C-67.65428985 130.98143477 -67.65428985 130.98143477 -65 127 C-65.59167575 121.94182563 -69.440834 118.18250256 -72.49414062 114.30859375 C-74.75933497 111.29487198 -75.93085027 109.54602192 -76.4140625 105.73046875 C-75.86330927 102.09861488 -74.65295987 100.50955663 -72 98 C-68.672851 96.59909516 -67.34119832 96.87466184 -63.9375 98.125 C-60.83309756 100.10653347 -59.03516402 101.94725397 -57 105 C-57 105.66 -57 106.32 -57 107 C-55.515 107.495 -55.515 107.495 -54 108 C-53.60844727 107.29206299 -53.21689453 106.58412598 -52.81347656 105.85473633 C-51.63430941 103.72407834 -50.45376028 101.59418488 -49.2722168 99.46484375 C-47.91468924 97.01703184 -46.56568519 94.56476819 -45.22192383 92.109375 C-42.01112795 86.26492778 -38.75290263 80.51595413 -35.12109375 74.91796875 C-28.94034277 66.32089878 -28.94034277 66.32089878 -27.5625 56.40234375 C-29.12567077 53.55030861 -30.84800034 51.41813182 -33 49 C-35.45378018 42.42546942 -34.76016735 34.15021485 -32.375 27.6875 C-28.59489454 19.46873412 -23.3043482 14.60408712 -15 11 C-14.34 11 -13.68 11 -13 11 C-13.0825 9.9275 -13.165 8.855 -13.25 7.75 C-13 4 -13 4 -11.125 1.625 C-7.11862281 -1.43870021 -4.92522917 -1.03689035 0 0 Z M-16.375 32.75 C-17.79173621 37.85025034 -17.65773139 41.60560945 -15.4375 46.3125 C-12.42814191 49.63051021 -10.33288762 50.8445633 -6 52 C-1.23185466 51.86402627 1.42037901 50.53029155 4.9375 47.3125 C7.25312392 43.59346765 8 41.3726316 8 37 C6.36210184 32.35928855 4.30453484 29.43299795 0 27 C-6.73949039 25.7791681 -11.99403989 27.17423258 -16.375 32.75 Z M-12 68 C-12.84820312 69.52625 -13.69640625 71.0525 -14.5703125 72.625 C-21.42803635 84.93262284 -28.3662993 97.17474364 -35.55517578 109.29296875 C-36.38637939 110.70255859 -36.38637939 110.70255859 -37.234375 112.140625 C-37.96479004 113.37087402 -37.96479004 113.37087402 -38.70996094 114.62597656 C-40.01556948 117.02865209 -41.03699327 119.44297269 -42 122 C-26.90365599 132.49785846 -12.08976947 136.84923645 6.1875 134.609375 C14.89364008 132.76405183 22.3594547 128.39435734 30 124 C29.41121799 120.35794543 28.41946818 117.51109174 26.69921875 114.25390625 C26.22218506 113.34439209 25.74515137 112.43487793 25.25366211 111.49780273 C24.73682861 110.52915283 24.21999512 109.56050293 23.6875 108.5625 C23.15713135 107.55711182 22.6267627 106.55172363 22.08032227 105.51586914 C17.76645455 97.36632338 13.36714384 89.26279457 8.92260742 81.18383789 C8.45185791 80.32781982 7.9811084 79.47180176 7.49609375 78.58984375 C7.08544678 77.84597412 6.6747998 77.10210449 6.25170898 76.33569336 C4.77838178 73.58645962 3.39491786 70.78983573 2 68 C-2.62 68 -7.24 68 -12 68 Z " fill="#FDFDFD" transform="translate(106,15)"/>
</svg>
