<?xml version="1.0" encoding="UTF-8"?>
<svg version="1.1" xmlns="http://www.w3.org/2000/svg" width="512" height="512">
<path d="M0 0 C0.71402481 -0.00817749 1.42804962 -0.01635498 2.16371155 -0.02478027 C4.53125162 -0.04963192 6.89873175 -0.06614971 9.26635742 -0.08056641 C10.47885949 -0.08855192 10.47885949 -0.08855192 11.71585655 -0.09669876 C15.99448066 -0.12342954 20.2730756 -0.14280451 24.55175781 -0.15722656 C28.97054386 -0.17387327 33.3885839 -0.21865059 37.8070879 -0.26959801 C41.20518345 -0.30325896 44.60310168 -0.31480266 48.0013485 -0.32045364 C49.63005969 -0.32716953 51.25875909 -0.34240055 52.88730812 -0.36634445 C55.16897941 -0.39797642 57.44863564 -0.39803702 59.73046875 -0.390625 C61.67666862 -0.40275528 61.67666862 -0.40275528 63.66218567 -0.41513062 C67.92449032 0.34771346 69.36755907 1.88191773 72.05932617 5.19287109 C79.21629636 19.50681146 73.05932617 37.18939925 73.05932617 53.19287109 C150.27932617 53.19287109 227.49932617 53.19287109 307.05932617 53.19287109 C307.05932617 38.01287109 307.05932617 22.83287109 307.05932617 7.19287109 C311.05932617 1.19287109 311.05932617 1.19287109 313.05932617 0.19287109 C315.37077022 0.07493037 317.68566307 0.02298185 320 0 C320.71402481 -0.00817749 321.42804962 -0.01635498 322.16371155 -0.02478027 C324.53125162 -0.04963192 326.89873175 -0.06614971 329.26635742 -0.08056641 C330.07469213 -0.08589008 330.88302685 -0.09121376 331.71585655 -0.09669876 C335.99448066 -0.12342954 340.2730756 -0.14280451 344.55175781 -0.15722656 C348.97054386 -0.17387327 353.3885839 -0.21865059 357.8070879 -0.26959801 C361.20518345 -0.30325896 364.60310168 -0.31480266 368.0013485 -0.32045364 C369.63005969 -0.32716953 371.25875909 -0.34240055 372.88730812 -0.36634445 C375.16897941 -0.39797642 377.44863564 -0.39803702 379.73046875 -0.390625 C381.67666862 -0.40275528 381.67666862 -0.40275528 383.66218567 -0.41513062 C387.92449032 0.34771346 389.36755907 1.88191773 392.05932617 5.19287109 C393.74977791 8.57377457 393.22497422 12.41385288 393.23632812 16.13378906 C393.24289932 17.06090195 393.24947052 17.98801483 393.25624084 18.94322205 C393.2760121 22.02383503 393.28764971 25.10439898 393.29760742 28.18505859 C393.30168295 29.23840519 393.30575848 30.29175179 393.3099575 31.37701797 C393.3308422 36.96049047 393.34512917 42.54393827 393.35449219 48.12744141 C393.3655152 53.87488081 393.39986066 59.62192861 393.43966389 65.36923027 C393.46592101 69.80301593 393.47419247 74.23671 393.47777367 78.67056656 C393.48262219 80.78748318 393.49418624 82.90439619 393.51281166 85.02123642 C393.64864292 101.49310979 392.71892344 114.43589996 381.05932617 127.19287109 C370.12477487 137.18681583 358.44163165 139.8031503 343.94116211 139.70080566 C342.55341821 139.70542488 341.16567922 139.7117846 339.77795029 139.71971464 C335.99716537 139.73629131 332.21678841 139.72821541 328.43600273 139.71576977 C324.34593934 139.70667335 320.25594331 139.72071164 316.16589355 139.73168945 C308.16637078 139.74943051 300.16699854 139.74565444 292.16746998 139.73403889 C285.66326988 139.72498741 279.15911182 139.72378797 272.65490723 139.72813416 C271.7274764 139.72874709 270.80004558 139.72936002 269.84451079 139.72999153 C267.96016597 139.73127049 266.07582115 139.73256734 264.19147635 139.73388189 C246.54217113 139.74527476 228.89294915 139.7321943 211.24365759 139.71068043 C196.11576586 139.69281062 180.98799693 139.69591509 165.86010742 139.71435547 C148.27185674 139.73578505 130.68367894 139.74417624 113.09541702 139.73190641 C111.21819307 139.73063228 109.3409691 139.7293748 107.46374512 139.72813416 C106.54023247 139.72751705 105.61671981 139.72689995 104.66522193 139.72626415 C98.17250802 139.72281751 91.67984051 139.72862477 85.18713379 139.73805237 C77.2694085 139.74929695 69.35184173 139.74618075 61.43413448 139.72492939 C57.39814472 139.71445196 53.3624188 139.71024028 49.32643127 139.723526 C45.62525248 139.73552489 41.92457983 139.72876555 38.22344637 139.70761579 C36.26447125 139.70109519 34.30546046 139.71401849 32.34652328 139.72784472 C19.33600584 139.61350394 8.72975302 136.03143327 -0.94067383 127.19287109 C-13.36916476 113.59463984 -13.54957409 99.46095453 -13.47192383 82.01318359 C-13.47462271 79.86994247 -13.47850841 77.72670254 -13.48352051 75.58346558 C-13.48938926 71.11362943 -13.48093237 66.64411493 -13.4621582 62.17431641 C-13.4392872 56.45115357 -13.45256009 50.72873783 -13.47644806 45.00560188 C-13.49090624 40.58918632 -13.48630132 36.17294786 -13.47593689 31.75652695 C-13.47327398 29.64584132 -13.476524 27.53513948 -13.4858551 25.42447281 C-13.49603003 22.47851148 -13.48050968 19.53376181 -13.45825195 16.58789062 C-13.46634888 15.72129318 -13.4744458 14.85469574 -13.48278809 13.96183777 C-13.40562299 8.44036535 -12.53345565 5.44262503 -8.94067383 1.19287109 C-5.98098335 -0.28697415 -3.30325095 0.03280197 0 0 Z M9.05932617 22.19287109 C8.97199792 35.68308675 8.97199792 35.68308675 8.9128418 49.17333984 C8.89494226 54.67945074 8.87381838 60.18541128 8.83300781 65.69140625 C8.8002952 70.13290042 8.78244813 74.57423323 8.77469444 79.01583862 C8.76917223 80.70623309 8.75838883 82.39661922 8.742136 84.08694458 C8.72020299 86.46358999 8.71736578 88.83957748 8.71875 91.21630859 C8.70796417 91.90755325 8.69717834 92.59879791 8.68606567 93.31098938 C8.73118635 100.51988522 10.91781413 107.05135906 16.05932617 112.19287109 C21.51840716 115.96831028 26.06364453 117.31599678 32.62043381 117.32429886 C33.75905137 117.32814 34.89766893 117.33198115 36.07079005 117.33593869 C37.32213087 117.33507221 38.57347169 117.33420573 39.86273193 117.33331299 C41.2051684 117.33589694 42.5476041 117.33891019 43.89003873 117.34231639 C47.58247335 117.35038608 51.27488854 117.35217594 54.96733093 117.35291386 C58.94836956 117.35476446 62.92939811 117.36231183 66.91043091 117.36904907 C75.6170637 117.38263264 84.32369189 117.38865713 93.03033352 117.39305973 C98.46644374 117.39582208 103.90255218 117.40005942 109.33866119 117.4045639 C124.38867964 117.41675654 139.43869666 117.42705591 154.48871994 117.430439 C155.93365237 117.43076834 155.93365237 117.43076834 157.40777536 117.43110435 C158.37337233 117.43132262 159.3389693 117.4315409 160.33382678 117.43176579 C162.29050366 117.43220926 164.24718054 117.43265582 166.20385742 117.43310547 C167.65972731 117.43343761 167.65972731 117.43343761 169.14500871 117.43377647 C184.87243017 117.43772462 200.59980529 117.45517917 216.32720885 117.47846499 C232.47299314 117.50217737 248.61875418 117.51464079 264.76455617 117.51580691 C273.83035508 117.51672373 282.89609363 117.52247774 291.96187592 117.54062653 C299.68151276 117.55602597 307.40107059 117.5611489 315.12071988 117.55288842 C319.05891652 117.54898138 322.99695401 117.54991411 326.93513107 117.56394577 C330.54257422 117.57668142 334.14973858 117.57549029 337.75718132 117.56335506 C339.67576156 117.56047229 341.5943466 117.57233641 343.51288867 117.58477712 C352.22740876 117.53479896 359.60039971 116.65179755 366.05932617 110.19287109 C370.32424324 104.02603155 371.21029758 99.01974196 371.17285156 91.67041016 C371.1730706 90.5429966 371.1730706 90.5429966 371.17329407 89.39280701 C371.17259879 86.91467376 371.16482443 84.43661617 371.15698242 81.95849609 C371.15511687 80.23785442 371.15369362 78.51721222 371.1526947 76.79656982 C371.1488803 72.27234424 371.13905919 67.74815086 371.12799072 63.22393799 C371.11595291 57.79321457 371.11136923 52.36248038 371.10553741 46.93174744 C371.09584688 38.68543294 371.07668278 30.43918908 371.05932617 22.19287109 C357.19932617 22.19287109 343.33932617 22.19287109 329.05932617 22.19287109 C329.03354492 25.45548828 329.00776367 28.71810547 328.98120117 32.07958984 C328.94277543 35.24365829 328.89761678 38.40756407 328.85180664 41.5715332 C328.82360227 43.76839415 328.80238511 45.96535648 328.78833008 48.16235352 C328.76689368 51.32279339 328.72023837 54.48201505 328.66870117 57.64208984 C328.66747253 58.62247726 328.6662439 59.60286469 328.66497803 60.61296082 C328.57142252 64.98066051 328.48135312 67.50968939 326.14624023 71.28979492 C323.18412884 73.99097161 321.61038298 74.31834268 317.70421124 74.32709217 C316.7836962 74.33155001 315.86318117 74.33600786 314.91477174 74.34060079 C313.89679767 74.34041643 312.8788236 74.34023206 311.83000183 74.34004211 C310.75376299 74.3437188 309.67752414 74.34739549 308.568672 74.35118359 C304.93819197 74.36225567 301.30774052 74.36607021 297.67724609 74.36987305 C295.0841106 74.37613496 292.490976 74.38278152 289.89784241 74.38978577 C282.09881205 74.40955955 274.29978037 74.41961732 266.5007312 74.42851356 C262.82989143 74.43289476 259.15905311 74.43826199 255.48821449 74.44350243 C243.28886178 74.46051524 231.08950997 74.47501022 218.89014721 74.48225117 C215.72347703 74.48416112 212.55680687 74.48608145 209.39013672 74.48803711 C208.2095171 74.48876272 208.2095171 74.48876272 207.00504658 74.48950299 C194.25004999 74.49780629 181.49514709 74.523148 168.74019142 74.55561779 C155.65116843 74.58866694 142.56219309 74.60669796 129.47312814 74.60989541 C122.12154953 74.61206245 114.77010757 74.62083934 107.41856956 74.64635658 C100.50506029 74.67029772 93.59180101 74.67390275 86.6782589 74.6635952 C84.13734622 74.6630978 81.59642174 74.6694779 79.05554581 74.68315125 C75.59326531 74.70074414 72.13188125 74.69382547 68.66960144 74.68061829 C67.65831954 74.69158753 66.64703763 74.70255678 65.60511082 74.71385843 C61.22607968 74.6733818 58.75443033 74.62004389 54.95868397 72.28738689 C52.25527253 69.30620137 51.92908397 67.66877902 51.85400391 63.74316406 C51.82408607 62.36195877 51.82408607 62.36195877 51.79356384 60.95285034 C51.77685135 59.95697906 51.76013885 58.96110779 51.74291992 57.93505859 C51.72213882 56.91687042 51.70135773 55.89868225 51.6799469 54.84963989 C51.61443151 51.58912055 51.55555715 48.32851903 51.49682617 45.06787109 C51.45364285 42.86083126 51.41002862 40.65379981 51.3659668 38.44677734 C51.25793522 33.02889168 51.15887641 27.61094588 51.05932617 22.19287109 C37.19932617 22.19287109 23.33932617 22.19287109 9.05932617 22.19287109 Z " fill="#000000" transform="translate(65.940673828125,319.80712890625)"/>
<path d="M0 0 C1.73549103 -0.0076664 1.73549103 -0.0076664 3.50604248 -0.01548767 C7.32065034 -0.02935759 11.13507699 -0.02842878 14.94970703 -0.02612305 C16.93615857 -0.02902809 18.92261018 -0.03193817 20.9090606 -0.03552979 C27.15130617 -0.04660323 33.39349156 -0.04707478 39.63574219 -0.04101562 C46.05631957 -0.03497879 52.47667765 -0.04728429 58.89721763 -0.06858569 C64.42697947 -0.08625115 69.95667182 -0.09219524 75.4864608 -0.08894795 C78.78150862 -0.0871426 82.07636608 -0.09102625 85.37139511 -0.10366249 C89.0498505 -0.11603799 92.72780229 -0.10922781 96.40625 -0.09765625 C97.48498383 -0.10529999 98.56371765 -0.11294373 99.67514038 -0.12081909 C110.39757016 -0.04649709 118.65542256 2.56869997 126.33251953 10.2746582 C133.01176018 19.03759359 134.64491862 27.60507609 134.55957031 38.36254883 C134.55986237 39.3390741 134.56015442 40.31559937 134.56045532 41.32171631 C134.5590705 44.52487308 134.5435493 47.72779245 134.52783203 50.9309082 C134.52409889 53.16149773 134.52125334 55.39208891 134.51925659 57.62268066 C134.51164388 63.47522561 134.4920157 69.32767028 134.46984863 75.18017578 C134.44933926 81.15957279 134.440244 87.13898611 134.43017578 93.1184082 C134.40876756 104.8372021 134.3746602 116.55592179 134.33251953 128.2746582 C136.04181641 128.2432373 136.04181641 128.2432373 137.78564453 128.21118164 C142.04218822 128.13839206 146.29867767 128.09271778 150.55566406 128.05493164 C152.39267246 128.03490447 154.22961782 128.00767438 156.06640625 127.97290039 C158.71776955 127.92398756 161.36828494 127.90160057 164.02001953 127.8840332 C164.83180664 127.86338806 165.64359375 127.84274292 166.47998047 127.82147217 C172.22325484 127.81924816 176.53002067 129.06608299 181.33251953 132.2746582 C185.7587208 136.93381744 187.62049498 140.7242248 187.64501953 147.1496582 C187.66177734 148.15770508 187.67853516 149.16575195 187.69580078 150.2043457 C186.94223814 156.57316545 183.39279359 160.67469646 179.08251953 165.1496582 C178.56238281 165.70137695 178.04224609 166.2530957 177.50634766 166.8215332 C176.38025332 168.01527278 175.25123996 169.20626412 174.11962891 170.39477539 C171.64611299 172.99669787 169.19328581 175.61776308 166.73950195 178.23828125 C165.46191069 179.60256095 164.18341837 180.96599737 162.90405273 182.32861328 C159.0063564 186.48021498 155.12739302 190.6480791 151.27001953 194.8371582 C144.06736855 202.65918394 136.80253201 210.42287823 129.54150391 218.19067383 C122.96382585 225.22842991 116.39785876 232.27606577 109.87109375 239.36108398 C106.04172496 243.51473938 102.19012635 247.64722971 98.33251953 251.7746582 C93.82460451 256.60066205 89.31972302 261.42938067 84.83251953 266.2746582 C84.33123535 266.81429199 83.82995117 267.35392578 83.31347656 267.90991211 C80.84142299 270.58455186 78.47441522 273.30020832 76.20751953 276.1496582 C69.62102544 283.89167758 60.86618953 288.43889169 50.83251953 289.55200195 C40.01715406 289.97447717 31.51091276 286.19589977 23.33251953 279.2746582 C21.44084924 277.33340785 19.69677318 275.33768372 17.97705078 273.2434082 C16.35342921 271.29969022 14.64453133 269.54247459 12.83251953 267.7746582 C10.470128 265.45784448 8.2506179 263.07680431 6.09423828 260.56762695 C2.38535979 256.30217171 -1.46479838 252.18695089 -5.35498047 248.0871582 C-10.19490615 242.96613981 -15.0221289 237.83559936 -19.79248047 232.6496582 C-24.02502754 228.04987437 -28.27576376 223.46777653 -32.54248047 218.8996582 C-33.12642578 218.27446289 -33.71037109 217.64926758 -34.31201172 217.00512695 C-36.09689402 215.09471447 -37.88212008 213.1846239 -39.66748047 211.2746582 C-46.84053234 203.60097894 -54.00668832 195.92182819 -61.12231445 188.19482422 C-64.41086911 184.62681065 -67.71765989 181.07642342 -71.03369141 177.53393555 C-73.38299601 175.02276197 -75.72678814 172.50648979 -78.06933594 169.98901367 C-79.08695108 168.89740146 -80.10659179 167.80767145 -81.12890625 166.72045898 C-82.3983018 165.36963915 -83.65824583 164.00995501 -84.91748047 162.6496582 C-85.60326172 161.91489258 -86.28904297 161.18012695 -86.99560547 160.4230957 C-90.91099579 155.39163617 -91.16065761 150.47985941 -91.04638672 144.28637695 C-90.27219314 138.13273518 -87.32511186 134.56761069 -82.54248047 130.8371582 C-77.57580602 128.13787861 -73.36176884 128.14299669 -67.84326172 128.17700195 C-66.55116035 128.17912437 -66.55116035 128.17912437 -65.23295593 128.18128967 C-62.48192878 128.1868868 -59.73098303 128.19943875 -56.97998047 128.2121582 C-55.11474727 128.21717358 -53.24951279 128.22173642 -51.38427734 128.22583008 C-46.81198036 128.23685529 -42.23974421 128.25411793 -37.66748047 128.2746582 C-37.6741423 127.0440567 -37.68080414 125.8134552 -37.68766785 124.54556274 C-37.7486011 112.92295125 -37.79351173 101.30037235 -37.82291698 89.6776371 C-37.83854294 83.70291081 -37.8597252 77.72831393 -37.89379883 71.75366211 C-37.92650163 65.98297231 -37.94435656 60.21240666 -37.9521122 54.44163132 C-37.95763611 52.24491803 -37.96842282 50.0482112 -37.98467064 47.85155106 C-38.0065899 44.76408694 -38.00944133 41.67712957 -38.00805664 38.58959961 C-38.01884247 37.69047852 -38.0296283 36.79135742 -38.04074097 35.86499023 C-37.99280864 25.92561677 -35.33106083 16.80255234 -28.66748047 9.2746582 C-19.53498593 1.37791375 -11.72724329 -0.02683205 0 0 Z M-12.66748047 25.2746582 C-15.45321322 29.45325734 -15.79110244 33.12287157 -15.79878235 38.06300354 C-15.80279053 38.99806732 -15.80679871 39.9331311 -15.81092834 40.89653015 C-15.81013527 42.41703728 -15.81013527 42.41703728 -15.80932617 43.96826172 C-15.8128006 45.04521301 -15.81627502 46.12216431 -15.81985474 47.23175049 C-15.82719875 49.56709338 -15.83255134 51.9024432 -15.8361454 54.23779488 C-15.84331633 57.93169438 -15.85898582 61.62546149 -15.87748718 65.31932068 C-15.92994155 75.82060994 -15.97797582 86.32182458 -15.9934082 96.82324219 C-16.00346906 103.24819741 -16.03273991 109.67281647 -16.07472801 116.09763908 C-16.0870641 118.54767252 -16.09215454 120.99775336 -16.08992958 123.44781685 C-16.08758615 126.86906197 -16.10966928 130.28933512 -16.13745117 133.71044922 C-16.12754906 135.23399269 -16.12754906 135.23399269 -16.1174469 136.78831482 C-16.20922417 143.65077867 -16.20922417 143.65077867 -18.5756073 146.87242126 C-21.53510649 148.85625047 -23.22902088 149.40618749 -26.75 149.47998047 C-27.59072052 149.49992569 -28.43144104 149.51987091 -29.29763794 149.54042053 C-30.2060141 149.55713303 -31.11439026 149.57384552 -32.05029297 149.59106445 C-33.44439896 149.6222361 -33.44439896 149.6222361 -34.8666687 149.65403748 C-37.84186257 149.71953467 -40.81714624 149.77841873 -43.79248047 149.8371582 C-45.80681275 149.88034326 -47.82113588 149.92395755 -49.83544922 149.96801758 C-54.7793671 150.07521623 -59.7233755 150.17648322 -64.66748047 150.2746582 C-61.51175875 153.98720978 -58.35831394 157.68440431 -55.00341797 161.2199707 C-54.36259277 161.89753418 -53.72176758 162.57509766 -53.06152344 163.27319336 C-52.39523926 163.97492676 -51.72895508 164.67666016 -51.04248047 165.3996582 C-46.18140761 170.54124179 -41.3323976 175.69166443 -36.54248047 180.8996582 C-32.27061894 185.54336487 -27.9764529 190.1653599 -23.66748047 194.7746582 C-18.82782662 199.95236154 -14.00842176 205.14786097 -9.20654297 210.3605957 C-5.3769659 214.51436977 -1.52539078 218.64719957 2.33251953 222.7746582 C7.16646649 227.94634818 11.98209875 233.1340792 16.77587891 238.34301758 C19.52090372 241.32259725 22.27908272 244.28906538 25.05126953 247.2434082 C25.68033203 247.91436523 26.30939453 248.58532227 26.95751953 249.27661133 C28.17469484 250.57366376 29.3933595 251.86932076 30.61376953 253.16333008 C33.67845437 256.43019899 36.5387525 259.76986488 39.33251953 263.2746582 C42.95002647 266.18876101 45.900309 266.76785909 50.42236328 266.5480957 C55.13802292 265.8730524 57.54855259 263.11719274 60.50439453 259.66137695 C64.23144006 255.35993307 68.10297565 251.21526004 72.02001953 247.0871582 C76.8599441 241.96614099 81.68723898 236.83566363 86.45751953 231.6496582 C90.72941265 227.0059804 95.02354685 222.38395678 99.33251953 217.7746582 C103.68132127 213.12209296 108.01765104 208.45871331 112.33251953 203.7746582 C117.23911093 198.4482515 122.17646092 193.15122746 127.12158203 187.8605957 C131.35712889 183.3265081 135.57232089 178.77426421 139.77368164 174.20849609 C142.53050743 171.21583158 145.3012769 168.23709476 148.08642578 165.27075195 C149.03678711 164.25754883 149.03678711 164.25754883 150.00634766 163.22387695 C151.2364095 161.91367664 152.46809991 160.60500278 153.70166016 159.2980957 C154.26175781 158.70125977 154.82185547 158.10442383 155.39892578 157.48950195 C155.89336182 156.96477295 156.38779785 156.44004395 156.8972168 155.89941406 C158.48777799 154.09890636 159.9141784 152.21268079 161.33251953 150.2746582 C160.08639893 150.26007568 158.84027832 150.24549316 157.55639648 150.23046875 C152.92492241 150.1724152 148.29393091 150.09518245 143.6628418 150.01220703 C141.65999189 149.97899093 139.65704913 149.95094868 137.65405273 149.92822266 C134.77173359 149.89461586 131.89026285 149.84229672 129.00830078 149.78637695 C128.11540848 149.77998703 127.22251617 149.77359711 126.30256653 149.76701355 C121.52664503 149.6545376 118.19022985 149.41364808 114.33251953 146.2746582 C113.15263603 143.9148912 113.20030201 142.49247782 113.1877594 139.86053467 C113.17741165 138.46846046 113.17741165 138.46846046 113.16685486 137.04826355 C113.1629348 135.51629082 113.1629348 135.51629082 113.15893555 133.95336914 C113.15224854 132.88006851 113.14556152 131.80676788 113.13867188 130.70094299 C113.12459613 128.36392107 113.11271018 126.0268852 113.10272408 123.68984222 C113.08634788 119.99143938 113.0631104 116.2931396 113.03782654 112.5947876 C112.96696398 102.07715868 112.90695685 91.55948932 112.85571289 81.04174805 C112.82391302 74.6138438 112.78263142 68.18605673 112.7355175 61.75824738 C112.7194997 59.30707153 112.70717712 56.85586866 112.69861031 54.40465546 C112.68645052 50.97415788 112.66229625 47.54393539 112.63549805 44.11352539 C112.63490891 43.10030716 112.63431976 42.08708893 112.63371277 41.04316711 C112.57111273 34.99253237 112.44593585 29.79712285 108.39501953 24.9621582 C105.28752728 22.41966454 102.71202523 22.1486171 98.83610535 22.13421631 C97.91509537 22.12850616 96.99408539 22.12279602 96.04516602 22.11691284 C94.5326123 22.11523605 94.5326123 22.11523605 92.98950195 22.11352539 C91.92580887 22.10856049 90.86211578 22.10359558 89.76618958 22.09848022 C86.24011594 22.08385079 82.7140873 22.07705527 79.18798828 22.0715332 C76.74042255 22.06578239 74.29285684 22.06002465 71.84529114 22.05426025 C66.70976552 22.04374804 61.57425557 22.03790681 56.4387207 22.03442383 C49.85789936 22.02893871 43.27728489 22.004911 36.69652843 21.97645187 C31.63934219 21.95782914 26.58220581 21.95262008 21.52498817 21.95108795 C19.09889914 21.94806008 16.67281102 21.94002705 14.2467556 21.92690277 C10.8522505 21.90985039 7.45825125 21.91172083 4.0637207 21.91821289 C3.06142426 21.90899811 2.05912781 21.89978333 1.02645874 21.89028931 C-4.27024254 21.92202584 -8.13796772 22.20142133 -12.66748047 25.2746582 Z " fill="#000000" transform="translate(207.66748046875,52.725341796875)"/>
</svg>
