<?xml version="1.0" encoding="UTF-8"?>
<svg version="1.1" xmlns="http://www.w3.org/2000/svg" width="162" height="160">
<path d="M0 0 C10.21345222 8.0997678 18.27103108 20.95719563 20 34 C20.94938145 44.62712175 20.13894424 54.05470826 16 64 C15.75282227 64.59570801 15.50564453 65.19141602 15.25097656 65.80517578 C7.10703818 84.87186303 -6.60284282 100.38103213 -21 115 C-22.03347007 116.0707293 -23.06608157 117.14228825 -24.09765625 118.21484375 C-29.0284217 123.27331248 -29.0284217 123.27331248 -31 125 C-31.66 125 -32.32 125 -33 125 C-33 125.66 -33 126.32 -33 127 C-37.37516624 126.53724203 -39.95972907 123.64275107 -43 120.75 C-43.85005615 119.95178833 -43.85005615 119.95178833 -44.71728516 119.13745117 C-53.53143294 110.75752798 -61.8339973 101.83988431 -69 92 C-69.55945313 91.2471875 -70.11890625 90.494375 -70.6953125 89.71875 C-82.15214389 73.89496495 -92.2589828 55.9734579 -89.57421875 35.80078125 C-86.71667897 20.14567067 -79.75927669 7.5247368 -66.6875 -1.75 C-45.92698165 -15.91140501 -20.29162753 -14.12815121 0 0 Z M-68.34765625 18.7421875 C-74.94058724 27.75096791 -77.26692804 37.94077403 -76 49 C-70.1201348 72.25696683 -52.1321008 92.77489278 -35 109 C-29.74618703 104.71117308 -25.35321944 100.18700139 -21 95 C-20.236875 94.12472656 -19.47375 93.24945313 -18.6875 92.34765625 C-6.5789144 78.25250583 6.65952673 61.33888181 7 42 C5.88028559 30.47574835 1.80498603 20.70436277 -7 13 C-7.928125 12.154375 -8.85625 11.30875 -9.8125 10.4375 C-28.28055149 -4.54423564 -53.85584507 1.25718014 -68.34765625 18.7421875 Z " fill="#FCFDFD" transform="translate(116,23)"/>
<path d="M0 0 C5.2301062 5.34897225 6.98877146 9.78911811 7.25 17.3125 C6.99986861 24.07386415 5.86878588 28.78842779 0.94921875 33.55859375 C-4.654416 38.09590577 -9.92351075 40.10488192 -17.1875 39.75 C-23.82182216 38.88290014 -28.67935215 35.80020753 -33.125 30.875 C-37.54029697 24.5117779 -38.19072628 18.24212671 -36.890625 10.73828125 C-35.05021975 4.40877939 -30.53168234 0.50437829 -25.25 -3.1875 C-16.02869814 -7.00321112 -8.01994573 -5.39804039 0 0 Z M-21.125 10.875 C-23.49108907 13.69776062 -23.49108907 13.69776062 -23.875 17.3125 C-23.08397068 21.7422642 -21.88525215 23.20460172 -18.25 25.8125 C-14.41694546 26.53119773 -12.81304388 26.13781424 -9.4375 24.1875 C-6.76002044 21.2805222 -6.25 19.74809391 -6.25 15.8125 C-7.85411848 12.28343933 -8.99159362 10.98477092 -12.25 8.8125 C-16.28621805 8.19829291 -17.77111041 8.46894877 -21.125 10.875 Z " fill="#FCFDFD" transform="translate(96.25,47.1875)"/>
</svg>
