<?xml version="1.0" encoding="UTF-8"?>
<svg version="1.1" xmlns="http://www.w3.org/2000/svg" width="162" height="159">
<path d="M0 0 C13.04496738 11.4584173 20.78287513 26.65659735 22.34765625 43.890625 C22.7237248 51.87484953 22.7237248 51.87484953 19.9375 55.5625 C16.35696028 57.04141858 14.69644417 57.09297937 11.0625 55.75 C8.07686646 51.84570998 7.60379438 48.51549948 7.1875 43.6875 C5.63649641 29.76085124 -0.46801252 18.88712825 -11.25 9.9375 C-23.44839383 1.03540192 -37.17650559 -2.00603304 -52.05078125 0.21484375 C-65.1266204 3.08101342 -76.24958734 9.87411442 -83.6875 21.0625 C-91.26996846 33.64801271 -94.02573309 46.79572587 -91.25390625 61.3359375 C-87.38613075 74.84907846 -79.52646625 86.53840432 -67.17578125 93.69140625 C-56.38989877 98.79258278 -46.38709753 99.94221244 -34.66210938 99.53515625 C-33.84162109 99.52097656 -33.02113281 99.50679688 -32.17578125 99.4921875 C-31.43368408 99.4701123 -30.69158691 99.44803711 -29.92700195 99.42529297 C-27.33378008 99.84853326 -26.48560109 100.65563394 -24.9375 102.75 C-24.29134615 108.78076923 -24.29134615 108.78076923 -26.1875 111.625 C-33.75372553 116.48900213 -48.54998585 114.71922235 -56.9765625 113.1015625 C-73.71107089 108.68183907 -88.055325 98.85051897 -97.48046875 84.265625 C-106.78922943 68.19366287 -109.45981847 50.52389458 -105.1015625 32.3984375 C-101.41345948 20.83908106 -95.73355131 11.16974965 -86.9375 2.75 C-86.34839844 2.12996094 -85.75929688 1.50992187 -85.15234375 0.87109375 C-61.71832718 -22.15089615 -24.51843159 -18.78152837 0 0 Z " fill="#FCFDFD" transform="translate(119.9375,30.25)"/>
<path d="M0 0 C1.9375 1.0625 1.9375 1.0625 3 3 C3.53202505 6.40522499 3.72104325 8.88695682 1.79486084 11.86032104 C0.01314146 13.89747799 -1.8508403 15.79461876 -3.7890625 17.68359375 C-4.4851059 18.38396255 -5.18114929 19.08433136 -5.89828491 19.80592346 C-7.37112271 21.27914205 -8.85269822 22.74366997 -10.34228516 24.19995117 C-12.61919384 26.43180872 -14.85936175 28.69628785 -17.09765625 30.96679688 C-18.53439057 32.39531184 -19.97312817 33.82181541 -21.4140625 35.24609375 C-22.08305573 35.92409531 -22.75204895 36.60209686 -23.4413147 37.30064392 C-28.18228595 41.87765636 -28.18228595 41.87765636 -32.34350586 42.50024414 C-37.10715421 41.603202 -39.69071648 38.34732126 -43 35 C-43.69351563 34.34 -44.38703125 33.68 -45.1015625 33 C-49.98353587 28.02077617 -49.98353587 28.02077617 -50.0625 23.125 C-49 20 -49 20 -47 18 C-43.44724579 17.44270522 -41.04527361 17.30315093 -37.984375 19.34375 C-36.25094022 20.83760436 -34.60061499 22.36532937 -33 24 C-29.14731271 22.43399364 -26.86811704 19.99890879 -24.04296875 16.9921875 C-23.08604468 15.99536532 -22.12833784 14.9992941 -21.16992188 14.00390625 C-19.67408221 12.44001804 -18.18435932 10.87163495 -16.70776367 9.28955078 C-15.2729511 7.7575882 -13.81662532 6.24898707 -12.35546875 4.7421875 C-11.49590576 3.8332373 -10.63634277 2.92428711 -9.75073242 1.98779297 C-6.26627701 -0.53021856 -4.20943438 -0.46469204 0 0 Z " fill="#FCFCFD" transform="translate(146,95)"/>
<path d="M0 0 C3.375 0.875 3.375 0.875 5.375 2.875 C5.60205078 5.76416016 5.60205078 5.76416016 5.5703125 9.4140625 C5.56386719 10.71601562 5.55742188 12.01796875 5.55078125 13.359375 C5.53406929 14.73958595 5.51713939 16.11979429 5.5 17.5 C5.48997006 18.88801452 5.48084423 20.27603589 5.47265625 21.6640625 C5.44901863 25.06788026 5.41606867 28.47135506 5.375 31.875 C6.11032959 32.06763428 6.84565918 32.26026855 7.60327148 32.45874023 C8.57852783 32.71856689 9.55378418 32.97839355 10.55859375 33.24609375 C11.52079834 33.50060303 12.48300293 33.7551123 13.47436523 34.01733398 C18.45819032 35.49096226 23.65423236 37.15423236 27.375 40.875 C27.83202148 44.37883136 27.74506943 46.24749097 25.9375 49.3125 C22.04403011 51.68656701 18.73823002 50.70287367 14.375 49.875 C10.83122295 48.91657779 7.39178149 47.73934191 3.9375 46.5 C3.04095703 46.19578125 2.14441406 45.8915625 1.22070312 45.578125 C0.36541016 45.27648437 -0.48988281 44.97484375 -1.37109375 44.6640625 C-2.14122803 44.39287598 -2.9113623 44.12168945 -3.70483398 43.84228516 C-5.625 42.875 -5.625 42.875 -7.625 39.875 C-7.84484088 37.16467595 -7.95298981 34.55952537 -7.9609375 31.84765625 C-7.9675943 31.06233017 -7.9742511 30.27700409 -7.98110962 29.46788025 C-7.99122915 27.80779359 -7.99592685 26.1476663 -7.99560547 24.48754883 C-7.99997846 21.95000096 -8.03630172 19.4141932 -8.07421875 16.87695312 C-8.08008717 15.26302678 -8.0840564 13.64909217 -8.0859375 12.03515625 C-8.10030853 11.2777565 -8.11467957 10.52035675 -8.12948608 9.74000549 C-8.09926236 6.24886839 -7.87887806 4.22967954 -5.82275391 1.35717773 C-3.625 -0.125 -3.625 -0.125 0 0 Z " fill="#FCFDFD" transform="translate(78.625,50.125)"/>
</svg>
